HIERARCHY
ROOT root
{
	OFFSET	0	13.1	24.9
	CHANNELS 6  Xposition Yposition Zposition Xrotation Yrotation Zrotation
	JOINT spine_1
	{
		OFFSET	0	9.99999	0
		CHANNELS 3  Xrotation Yrotation Zrotation
		JOINT spine_2
		{
			OFFSET	0	112	-10
			CHANNELS 3  Xrotation Yrotation Zrotation
			JOINT spine_3
			{
				OFFSET	0	206.5	19.3
				CHANNELS 3  Xrotation Yrotation Zrotation
				JOINT spine_4
				{
					OFFSET	0	110.4	14.6
					CHANNELS 3  Xrotation Yrotation Zrotation
					JOINT neck_1
					{
						OFFSET	0	71.8	-50.3
						CHANNELS 3  Xrotation Yrotation Zrotation
						JOINT neck_2
						{
							OFFSET	0	86.2	-25.8
							CHANNELS 3  Xrotation Yrotation Zrotation
							JOINT head_ee
							{
								OFFSET	0	179.8	-8.7
								CHANNELS 3  Xrotation Yrotation Zrotation
								End Site
								{
									OFFSET	1	0	0
								}
							}
						}
					}
					JOINT left_clavicle
					{
						OFFSET	-43.2	22.4	-70.8
						CHANNELS 3  Xrotation Yrotation Zrotation
						JOINT left_shoulder
						{
							OFFSET	-93.9	-5.79999	48.7
							CHANNELS 3  Xrotation Yrotation Zrotation
							JOINT left_elbow
							{
								OFFSET	-291.4	-30.8	15.2
								CHANNELS 3  Xrotation Yrotation Zrotation
								JOINT left_lowarm_twist
								{
									OFFSET	-110.7	-3.89999	13.6
									CHANNELS 3  Xrotation Yrotation Zrotation
									JOINT left_hand
									{
										OFFSET	-110.7	-3.89999	13.6
										CHANNELS 3  Xrotation Yrotation Zrotation
										JOINT left_ee
										{
											OFFSET	-80.8	-5.10001	12.1
											CHANNELS 3  Xrotation Yrotation Zrotation
											End Site
											{
												OFFSET	1	0	0
											}
										}
									}
								}
							}
						}
					}
					JOINT right_clavicle
					{
						OFFSET	43.2	22.4	-70.8
						CHANNELS 3  Xrotation Yrotation Zrotation
						JOINT right_shoulder
						{
							OFFSET	93.9	-5.79999	48.7
							CHANNELS 3  Xrotation Yrotation Zrotation
							JOINT right_elbow
							{
								OFFSET	291.4	-30.8	15.2
								CHANNELS 3  Xrotation Yrotation Zrotation
								JOINT right_lowarm_twist
								{
									OFFSET	110.7	-3.89999	13.6
									CHANNELS 3  Xrotation Yrotation Zrotation
									JOINT right_hand
									{
										OFFSET	110.7	-3.89999	13.6
										CHANNELS 3  Xrotation Yrotation Zrotation
										JOINT right_ee
										{
											OFFSET	80.8	-5.10001	12.1
											CHANNELS 3  Xrotation Yrotation Zrotation
											End Site
											{
												OFFSET	1	0	0
											}
										}
									}
								}
							}
						}
					}
				}
			}
		}
	}
	JOINT left_hip
	{
		OFFSET	-82.8	-127.5	0.300001
		CHANNELS 3  Xrotation Yrotation Zrotation
		JOINT left_knee
		{
			OFFSET	-28.2	-396.7	2.2
			CHANNELS 3  Xrotation Yrotation Zrotation
			JOINT left_ankle
			{
				OFFSET	-11.7	-411.3	35.4
				CHANNELS 3  Xrotation Yrotation Zrotation
				JOINT left_toes
				{
					OFFSET	0	-60	-88.6
					CHANNELS 3  Xrotation Yrotation Zrotation
					JOINT left_foot_ee
					{
						OFFSET	-22.5	-16.5	-42.2
						CHANNELS 3  Xrotation Yrotation Zrotation
						End Site
						{
							OFFSET	1	0	0
						}
					}
				}
			}
		}
	}
	JOINT right_hip
	{
		OFFSET	82.8	-127.5	0.300001
		CHANNELS 3  Xrotation Yrotation Zrotation
		JOINT right_knee
		{
			OFFSET	28.2	-396.7	2.2
			CHANNELS 3  Xrotation Yrotation Zrotation
			JOINT right_ankle
			{
				OFFSET	11.7	-411.3	35.4
				CHANNELS 3  Xrotation Yrotation Zrotation
				JOINT right_toes
				{
					OFFSET	0	-60	-88.6
					CHANNELS 3  Xrotation Yrotation Zrotation
					JOINT right_foot_ee
					{
						OFFSET	22.5	-16.5	-42.2
						CHANNELS 3  Xrotation Yrotation Zrotation
						End Site
						{
							OFFSET	1	0	0
						}
					}
				}
			}
		}
	}
}
MOTION
Frames: 6
Frame Time: 0.02
767.740232365 632.308 -1873.2042983 -3.34592834766 27.2374601706 8.15561223723 2.64127 0.159804 -1.13821 2.64196 0.231903 -1.12574 2.6372 0.414501 -1.07204 2.63567 0.240002 -1.12404 -15.9399 11.5788 4.68952 -16.2535 19.5027 8.49986 -0.0 0.0 -0.0 5.35502 5.52727 10.4549 -19.7092 -18.6989 49.0301 2.17349 -47.1086 0.947603 67.9331 -2.52877 -7.78893 2.68719 -12.9332 12.6869 -0.0 0.0 -0.0 9.88671 -8.33834 -18.8172 -34.1412 25.2313 -50.6621 0.618608 17.0373 -0.0926584 -6.11135 0.254992 -0.73808 1.38544 3.81213 -7.73366 0.0 0.0 0.0 16.6482 -1.66167 -13.7609 -14.3116 0.32002 2.16728 -2.42482 24.2369 0.370681 37.2482 -0.0 -0.0 -0.0 0.0 -0.0 25.1423 31.8453 -15.0518 -40.1768 0.478053 -6.02301 42.2961 -17.2573 5.17389 26.0361 -0.0 -0.0 0.0 0.0 0.0 
757.184678557 632.934 -1880.20813098 -2.90678100547 27.1491812162 8.11898148149 2.52609 0.224044 -1.14899 2.52678 0.296698 -1.1324 2.52071 0.481689 -1.06694 2.51926 0.307152 -1.12961 -14.3773 10.5328 2.9405 -14.6274 18.3499 6.22004 -0.0 0.0 -0.0 5.2784 6.4819 10.322 -19.4906 -18.0964 49.3994 2.13161 -46.5527 0.91706 67.0349 -2.43864 -7.71712 2.7184 -13.0945 12.8273 -0.0 0.0 -0.0 9.94272 -7.62475 -18.9929 -34.3306 25.3297 -50.6283 0.637415 17.524 -0.0982451 -6.11959 0.255389 -0.739056 1.56043 4.24032 -8.74598 0.0 0.0 0.0 15.4827 1.37309 -10.4623 -14.5284 0.320679 2.20054 -1.0088 23.3749 0.15314 39.3813 -0.0 -0.0 -0.0 0.0 -0.0 23.3431 28.9584 -14.692 -32.7345 0.0703494 -4.95543 40.4207 -17.8917 5.02125 26.1017 -0.0 -0.0 0.0 0.0 0.0 
741.602885388 637.917 -1873.70056506 -2.91362015313 27.4084734094 8.36558158575 2.31585 0.210929 -1.03044 2.3164 0.276068 -1.01493 2.31137 0.445199 -0.952947 2.31022 0.28912 -1.01129 -13.0092 8.30404 2.41447 -13.1259 14.2894 4.79788 -0.0 0.0 -0.0 5.30625 7.34186 10.3783 -18.3778 -17.5873 51.0719 2.05109 -45.4508 0.859133 63.1982 -2.06678 -7.39491 2.95855 -11.2472 15.3446 -0.0 0.0 -0.0 10.5969 -3.69875 -20.6327 -34.0093 25.8776 -50.2548 0.641942 17.6407 -0.0996125 -3.07078 0.118267 -0.374216 1.51917 2.62923 -9.13203 0.0 0.0 0.0 17.7743 8.70512 -11.7741 -15.2915 0.321995 2.31761 4.53899 23.9964 -0.682124 40.1537 -0.0 -0.0 -0.0 0.0 -0.0 19.4448 31.4928 -9.6469 -12.7683 -0.311697 -1.93064 40.7726 -20.8371 5.11993 23.6668 -0.0 -0.0 0.0 0.0 0.0 
744.34830678 637.917 -1877.93689455 -2.8926285953 26.596179815 8.31934855488 2.31585 0.210929 -1.03044 2.3164 0.276068 -1.01493 2.31137 0.445199 -0.952947 2.31022 0.28912 -1.01129 -13.0092 8.30404 2.41447 -13.1259 14.2894 4.79788 -0.0 0.0 -0.0 5.30625 7.34186 10.3783 -18.3778 -17.5873 51.0719 2.05109 -45.4508 0.859133 63.1982 -2.06678 -7.39491 2.95855 -11.2472 15.3446 -0.0 0.0 -0.0 10.5969 -3.69875 -20.6327 -34.0093 25.8776 -50.2548 0.641942 17.6407 -0.0996125 -3.07078 0.118267 -0.374216 1.51917 2.62923 -9.13203 0.0 0.0 0.0 17.7743 8.70512 -11.7741 -15.2915 0.321995 2.31761 4.53899 23.9964 -0.682124 40.1537 -0.0 -0.0 -0.0 0.0 -0.0 19.4448 31.4928 -9.6469 -12.7683 -0.311697 -1.93064 40.7726 -20.8371 5.11993 23.6668 -0.0 -0.0 0.0 0.0 0.0 
742.443715479 635.421 -1874.04217707 -4.42384850804 26.7713496675 8.70277190093 2.3704 0.21185 -0.88987 2.37081 0.268044 -0.874587 2.3666 0.412549 -0.816431 2.36578 0.278437 -0.871334 -12.7843 6.84092 2.96391 -12.8366 11.1388 4.85013 -0.0 0.0 -0.0 5.23712 8.01341 10.2563 -17.8049 -17.424 51.8521 2.0006 -44.7371 0.823375 61.7024 -1.92781 -7.26271 2.9899 -10.0132 16.1286 -0.0 0.0 -0.0 10.8 -2.35429 -21.1545 -33.5859 26.5729 -49.78 0.650806 17.8689 -0.102315 -1.5792 0.0583122 -0.193228 1.5231 1.82567 -9.48832 0.0 0.0 0.0 20.2888 10.9806 -11.5232 -15.6996 0.32206 2.38022 6.34916 24.1774 -0.950368 40.1537 -0.0 -0.0 -0.0 0.0 -0.0 17.8969 32.401 -8.4049 -4.35045 -0.154514 -0.649623 42.2127 -21.7514 5.27412 23.4629 -0.0 -0.0 0.0 0.0 0.0 
745.563662628 635.421 -1878.82463408 -4.38884389389 25.8527140504 8.6238035095 2.3704 0.21185 -0.88987 2.37081 0.268044 -0.874587 2.3666 0.412549 -0.816431 2.36578 0.278437 -0.871334 -12.7843 6.84092 2.96391 -12.8366 11.1388 4.85013 -0.0 0.0 -0.0 5.23712 8.01341 10.2563 -17.8049 -17.424 51.8521 2.0006 -44.7371 0.823375 61.7024 -1.92781 -7.26271 2.9899 -10.0132 16.1286 -0.0 0.0 -0.0 10.8 -2.35429 -21.1545 -33.5859 26.5729 -49.78 0.650806 17.8689 -0.102315 -1.5792 0.0583122 -0.193228 1.5231 1.82567 -9.48832 0.0 0.0 0.0 20.2888 10.9806 -11.5232 -15.6996 0.32206 2.38022 6.34916 24.1774 -0.950368 40.1537 -0.0 -0.0 -0.0 0.0 -0.0 17.8969 32.401 -8.4049 -4.35045 -0.154514 -0.649623 42.2127 -21.7514 5.27412 23.4629 -0.0 -0.0 0.0 0.0 0.0 
